<?xml version="1.0" encoding="UTF-8" standalone="no"?>
<!-- Created with Inkscape (http://www.inkscape.org/) -->

<svg
   xmlns:dc="http://purl.org/dc/elements/1.1/"
   xmlns:cc="http://creativecommons.org/ns#"
   xmlns:rdf="http://www.w3.org/1999/02/22-rdf-syntax-ns#"
   xmlns:svg="http://www.w3.org/2000/svg"
   xmlns="http://www.w3.org/2000/svg"
   xmlns:sodipodi="http://sodipodi.sourceforge.net/DTD/sodipodi-0.dtd"
   xmlns:inkscape="http://www.inkscape.org/namespaces/inkscape"
   width="10mm"
   height="8.2599382mm"
   viewBox="0 0 10 8.2599383"
   version="1.1"
   id="svg8"
   inkscape:version="0.92.5 (2060ec1f9f, 2020-04-08)"
   sodipodi:docname="thonk.svg">
  <defs
     id="defs2" />
  <sodipodi:namedview
     id="base"
     pagecolor="#ffffff"
     bordercolor="#666666"
     borderopacity="1.0"
     inkscape:pageopacity="0.0"
     inkscape:pageshadow="2"
     inkscape:zoom="3.1624007"
     inkscape:cx="35.199174"
     inkscape:cy="115.86438"
     inkscape:document-units="mm"
     inkscape:current-layer="layer1"
     showgrid="false"
     inkscape:window-width="1920"
     inkscape:window-height="1013"
     inkscape:window-x="1920"
     inkscape:window-y="0"
     inkscape:window-maximized="1"
     fit-margin-top="0"
     fit-margin-left="0"
     fit-margin-right="0"
     fit-margin-bottom="0" />
  <metadata
     id="metadata5">
    <rdf:RDF>
      <cc:Work
         rdf:about="">
        <dc:format>image/svg+xml</dc:format>
        <dc:type
           rdf:resource="http://purl.org/dc/dcmitype/StillImage" />
        <dc:title></dc:title>
      </cc:Work>
    </rdf:RDF>
  </metadata>
  <g
     inkscape:label="Layer 1"
     inkscape:groupmode="layer"
     id="layer1"
     transform="translate(-53.771195,-168.46944)">
    <g
       id="g957"
       transform="matrix(0.22243734,0,0,0.22243734,25.176908,137.26025)">
      <g
         style="opacity:1"
         transform="translate(35.23,92.564316)"
         id="g929">
        <path
           style="opacity:1;fill:#f7c437;stroke-width:0.09333912;stroke-miterlimit:4;stroke-dasharray:none"
           d="m 115.87494,84.666157 c -0.77611,-0.168547 -0.61602,-0.503846 -1.30593,-0.515029 -0.74925,-0.01214 -2.03697,-1.914045 -2.73241,-2.427125 -0.92099,-0.679482 -2.5968,-1.439895 -3.26881,-1.184399 -1.29126,0.49094 -1.37788,0.32661 -2.99826,-1.358447 -1.36406,-1.418508 -2.19936,-2.61002 -3.39299,-3.309482 -0.6026,-0.353122 -0.4027,0.0555 -1.55282,-1.192234 -0.750861,-0.814592 -2.059534,-2.511111 -2.908158,-3.770042 -0.848625,-1.25893 -2.066177,-2.907374 -2.705673,-3.663208 -1.869444,-2.209537 -2.06341,-3.261714 -1.188908,-6.449301 1.569558,-5.721089 5.586646,-10.27008 8.382089,-10.711236 0.38806,-0.06124 1.40571,-0.250277 2.14103,-0.479982 0.73533,-0.229705 0.74907,-0.165417 1.47668,-0.452696 3.29472,-1.30085 4.39363,-1.435841 6.52638,0.01939 1.56297,1.06645 2.08735,0.482888 3.70393,0.215665 2.05966,0.0064 9.81351,2.226946 12.65384,3.623825 1.96907,0.968389 6.15934,5.111325 8.08233,7.991025 l 1.48907,2.229898 V 71.25289 79.273 l -1.32292,0.559216 c -0.7276,0.307566 -2.19604,0.751261 -3.26319,0.985989 -1.06715,0.234724 -3.49202,1.028623 -5.38859,1.764217 -4.97603,1.929984 -9.57992,2.701974 -12.42669,2.083735 z"
           id="path917"
           inkscape:connector-curvature="0"
           sodipodi:nodetypes="ccccsssssssssscsscccccsc" />
        <path
           style="opacity:1;fill:#e88d0a;stroke-width:0.35277778"
           d="m 111.64148,83.758054 c -0.55289,-0.426246 -1.29487,-1.087303 -1.71583,-1.50934 -0.42643,0.144251 -1.25397,0.467871 -1.88437,0.654507 -0.62267,0.370812 -4.33115,-1.005866 -5.59868,-2.667682 -0.95349,-1.250086 -1.36609,-1.789034 -0.62156,-3.482859 0.63881,-1.453293 0.49167,-2.320052 0.13279,-4.011166 -0.54214,-2.554706 -0.28819,-3.54787 1.14184,-4.111801 2.43904,-0.961837 4.17804,0.686338 4.68552,4.18094 l 0.24989,1.720774 6.56777,-0.290809 c 8.90364,-0.394237 9.94596,-0.33465 10.73057,0.613435 1.03041,1.245114 0.67778,3.097765 -0.77539,4.073782 -1.07893,0.724657 -1.61311,0.805099 -5.3463,0.805099 h -4.14759 l 0.40207,1.287047 c 0.30119,0.964141 0.39165,1.86829 -0.79032,2.93275 -1.18198,1.064459 -2.52649,0.196607 -3.03041,-0.194677 z"
           id="path919"
           inkscape:connector-curvature="0"
           sodipodi:nodetypes="cccsscsscsssscszc" />
        <g
           transform="translate(45.394979,1.4047661)"
           id="g927">
          <circle
             r="2.6326346"
             cx="62.823837"
             cy="55.145615"
             id="circle923"
             style="opacity:1;fill:#5a3d00;fill-opacity:1;stroke:none;stroke-width:0.40000001;stroke-linecap:square;stroke-miterlimit:4;stroke-dasharray:none;stroke-dashoffset:0;stroke-opacity:1" />
          <circle
             style="opacity:1;fill:#5a3d00;fill-opacity:1;stroke:none;stroke-width:0.40000001;stroke-linecap:square;stroke-miterlimit:4;stroke-dasharray:none;stroke-dashoffset:0;stroke-opacity:1"
             id="circle925"
             cy="61.327869"
             cx="77.791397"
             r="2.6326346" />
        </g>
      </g>
      <g
         id="g943">
        <path
           sodipodi:nodetypes="cssscccczcsscccscczccsccccccsszc"
           inkscape:connector-curvature="0"
           id="path945"
           d="m 165.74719,168.31002 c -3.3635,-1.33186 -22.47046,-7.52166 -23.21821,-7.52166 -0.84327,0 -2.02817,-1.43092 -2.02817,-2.44928 0,-1.26444 1.25781,-2.44928 2.60012,-2.44928 1.13976,0 19.38153,5.76956 24.92232,7.88251 1.75324,0.66858 3.39966,1.49007 3.65872,1.82553 1.17087,1.51616 -0.0975,3.86893 -2.07246,3.84421 -0.56993,-0.007 -2.30797,-0.51654 -3.86232,-1.13203 z m -11.50368,-12.55405 c -0.78471,0.15592 -1.74364,0.37188 -2.50564,0.18249 -1.73177,-0.13314 -2.65201,-3.19809 -1.10105,-4.18989 1.37208,-0.87741 2.82517,-0.65225 4.54335,-1.01221 0.92411,-0.1936 2.97135,-0.51294 3.27965,-0.53034 0.82195,0.15435 1.35866,0.0671 1.93933,-0.2979 0,0 2.94201,-0.14696 3.78837,0.64816 0.90011,0.84561 0.97882,2.06346 0.63932,2.86698 -0.33951,0.80353 -1.24515,1.37021 -2.60953,1.6234 -2.3857,0.38946 -4.38594,0.5778 -7.9738,0.70937 z m -13.71563,-6.88704 c -0.20172,0.10377 -1.27767,0.28154 -2.47635,-0.12575 -2.27691,-0.77371 -3.10865,-2.05154 -2.55129,-3.67585 0.44992,-1.43247 1.81273,-1.78567 3.67276,-2.73724 1.86004,-0.95157 4.01024,-1.7768 5.41376,-1.9792 1.84607,-0.16632 1.94592,0.0768 3.53221,1.53896 0.91663,0.84493 2.14065,2.4072 2.72004,3.47173 0.88131,1.61927 0.98564,2.08428 0.63852,2.84611 -0.22819,0.50083 -0.84131,1.10489 -1.36248,1.34235 -1.25019,0.45542 -2.41788,-0.0844 -3.76257,-2.09025 -0.57054,-0.8511 -0.81318,-1.48596 -1.38923,-1.78727 -0.57606,-0.3013 -1.55948,-0.1951 -2.04437,0.20731 -0.96052,0.79716 -2.18928,2.88532 -2.391,2.9891 z"
           style="opacity:1;fill:#5a3d00;fill-opacity:1;stroke-width:0.37681165" />
      </g>
    </g>
  </g>
</svg>
